<?xml version="1.0" encoding="UTF-8"?>
<!DOCTYPE svg PUBLIC "-//W3C//DTD SVG 1.1//EN" "http://www.w3.org/Graphics/SVG/1.1/DTD/svg11.dtd">
<!-- Creator: CorelDRAW 2021 (64-Bit) -->
<svg xmlns="http://www.w3.org/2000/svg" xml:space="preserve" width="11in" height="8.5in" version="1.1" style="shape-rendering:geometricPrecision; text-rendering:geometricPrecision; image-rendering:optimizeQuality; fill-rule:evenodd; clip-rule:evenodd"
viewBox="0 0 11000 8500"
 xmlns:xlink="http://www.w3.org/1999/xlink"
 xmlns:xodm="http://www.corel.com/coreldraw/odm/2003">
 <defs>
  <style type="text/css">
   <![CDATA[
    .fil0 {fill:white;fill-rule:nonzero}
   ]]>
  </style>
 </defs>
 <g id="Layer_x0020_1">
  <metadata id="CorelCorpID_0Corel-Layer"/>
  <path id="whatsapp-brands-solid.svg" class="fil0" d="M8510.47 1286.92c-749.01,-750.8 -1746.5,-1163.74 -2806.55,-1163.74 -2188.04,0 -3968.5,1780.46 -3968.5,3968.5 0,698.96 182.33,1381.83 529.13,1984.25l-563.09 2055.75 2104.02 -552.37c579.19,316.41 1231.67,482.65 1896.66,482.65l1.79 0c2186.25,0 4006.04,-1780.46 4006.04,-3968.5 0,-1060.05 -450.48,-2055.76 -1199.49,-2806.55l0 0zm-2806.55 6106.48c-593.49,0 -1174.46,-159.1 -1680.35,-459.42l-119.77 -71.5 -1247.75 327.13 332.49 -1217.36 -78.65 -125.13c-330.71,-525.56 -504.11,-1131.56 -504.11,-1755.44 0,-1818 1480.14,-3298.15 3299.93,-3298.15 881.29,0 1708.96,343.22 2331.05,967.1 622.09,623.87 1004.64,1451.54 1002.85,2332.83 0,1819.79 -1517.69,3299.94 -3335.69,3299.94l-0 -0zm1809.06 -2470.48c-98.32,-50.06 -586.34,-289.59 -677.5,-321.77 -91.17,-33.96 -157.31,-50.06 -223.45,50.05 -66.14,100.11 -255.63,321.77 -314.62,389.7 -57.2,66.14 -116.19,75.08 -214.51,25.03 -582.76,-291.38 -965.31,-520.2 -1349.65,-1179.82 -101.89,-175.19 101.89,-162.67 291.38,-541.65 32.18,-66.14 16.09,-123.34 -8.94,-173.4 -25.03,-50.05 -223.45,-538.07 -305.68,-736.5 -80.44,-193.06 -162.67,-166.25 -223.45,-169.82 -57.2,-3.57 -123.35,-3.57 -189.49,-3.57 -66.14,0 -173.4,25.03 -264.56,123.34 -91.17,100.11 -346.8,339.65 -346.8,827.67 0,488.02 355.73,959.95 404,1026.09 50.06,66.14 698.96,1067.2 1694.66,1498.02 629.24,271.72 875.93,294.96 1190.55,248.48 191.27,-28.6 586.34,-239.54 668.57,-471.93 82.23,-232.39 82.23,-430.81 57.2,-471.93 -23.24,-44.69 -89.38,-69.72 -187.7,-117.98l0 0z"/>
  <path id="phone-solid.svg" class="fil0" d="M4261.84 200.45c-127.83,-308.79 -464.84,-473.15 -786.91,-385.16l-1460.94 398.44c-288.87,79.69 -489.75,342 -489.75,640.82 0,4107.23 3330.27,7437.5 7437.5,7437.5 298.83,0 561.13,-200.88 640.82,-489.75l398.44 -1460.94c87.99,-322.07 -76.37,-659.08 -385.16,-786.91l-1593.75 -664.06c-270.61,-112.89 -584.37,-34.86 -768.65,192.58l-670.7 818.46c-1168.75,-552.83 -2115.04,-1499.12 -2667.87,-2667.87l818.46 -669.04c227.44,-185.94 305.47,-498.05 192.58,-768.65l-664.06 -1593.75 0 -1.66z"/>
 </g>
</svg>
