<?xml version="1.0" encoding="UTF-8"?>
<!DOCTYPE svg PUBLIC "-//W3C//DTD SVG 1.1//EN" "http://www.w3.org/Graphics/SVG/1.1/DTD/svg11.dtd">
<!-- Creator: CorelDRAW 2021 (64-Bit) -->
<svg xmlns="http://www.w3.org/2000/svg" xml:space="preserve" width="8.5in" height="11in" version="1.1" style="shape-rendering:geometricPrecision; text-rendering:geometricPrecision; image-rendering:optimizeQuality; fill-rule:evenodd; clip-rule:evenodd"
viewBox="0 0 8500 11000"
 xmlns:xlink="http://www.w3.org/1999/xlink"
 xmlns:xodm="http://www.corel.com/coreldraw/odm/2003">
 <defs>
  <style type="text/css">
   <![CDATA[
    .fil0 {fill:white;fill-rule:nonzero}
   ]]>
  </style>
 </defs>
 <g id="Layer_x0020_1">
  <metadata id="CorelCorpID_0Corel-Layer"/>
  <path id="linkedin.svg" class="fil0" d="M6458.49 2503.43l-4635.42 0c-59.75,-2.8 -119.46,6.21 -175.72,26.52 -56.26,20.31 -107.96,51.52 -152.15,91.83 -44.18,40.31 -79.98,88.95 -105.35,143.12 -25.36,54.17 -39.8,112.81 -42.47,172.56l0 4645.84c3.5,125.04 54.74,244.03 143.2,332.46 88.46,88.47 207.44,139.72 332.49,143.23l4635.42 0c121.56,-5.42 236.18,-58.26 319.27,-147.19 83.09,-88.93 128.02,-206.84 125.18,-328.51l0 -4645.84c1,-58.16 -9.9,-115.91 -32.02,-169.7 -22.12,-53.8 -55,-102.51 -96.63,-143.15 -41.6,-40.64 -91.08,-72.35 -145.38,-93.19 -54.31,-20.83 -112.3,-30.36 -170.42,-27.99zm-3375 4631.95l-809.03 0 0 -2475.69 809.03 0 0 2475.69zm-385.42 -2850.7c-56.46,1.97 -112.71,-7.76 -165.22,-28.57 -52.52,-20.81 -100.16,-52.26 -139.94,-92.37 -39.78,-40.11 -70.84,-88 -91.22,-140.69 -20.39,-52.69 -29.65,-109.02 -27.22,-165.45 -2.5,-57.05 6.96,-113.98 27.76,-167.16 20.8,-53.18 52.49,-101.43 93.03,-141.64 40.54,-40.21 89.04,-71.51 142.38,-91.88 53.35,-20.37 110.36,-29.36 167.39,-26.41 56.45,-1.96 112.71,7.76 165.22,28.57 52.52,20.81 100.17,52.26 139.94,92.37 39.78,40.11 70.84,88.01 91.22,140.69 20.39,52.69 29.65,109.02 27.22,165.45 2.5,57.05 -6.96,113.99 -27.76,167.17 -20.8,53.18 -52.49,101.42 -93.03,141.63 -40.54,40.22 -89.04,71.51 -142.38,91.88 -53.35,20.37 -110.36,29.37 -167.39,26.41zm3281.25 2850.7l-812.5 0 0 -1354.17c0,-322.92 -114.58,-545.14 -402.78,-545.14 -89.52,0.76 -176.63,29.2 -249.34,81.42 -72.74,52.22 -127.53,125.66 -156.91,210.24 -22.57,63.4 -32.01,130.73 -27.78,197.92l0 1409.72 -798.61 0 0 -2475.69 798.61 0 0 347.22c71,-130.45 176.67,-238.71 305.35,-312.88 128.68,-74.13 275.35,-111.26 423.82,-107.27 524.31,0 920.14,347.24 920.14,1086.82l0 1461.8z"/>
 </g>
</svg>
