<?xml version="1.0" encoding="UTF-8"?>
<!DOCTYPE svg PUBLIC "-//W3C//DTD SVG 1.1//EN" "http://www.w3.org/Graphics/SVG/1.1/DTD/svg11.dtd">
<!-- Creator: CorelDRAW 2021 (64-Bit) -->
<svg xmlns="http://www.w3.org/2000/svg" xml:space="preserve" width="8.5in" height="11in" version="1.1" style="shape-rendering:geometricPrecision; text-rendering:geometricPrecision; image-rendering:optimizeQuality; fill-rule:evenodd; clip-rule:evenodd"
viewBox="0 0 8500 11000"
 xmlns:xlink="http://www.w3.org/1999/xlink"
 xmlns:xodm="http://www.corel.com/coreldraw/odm/2003">
 <defs>
  <style type="text/css">
   <![CDATA[
    .fil0 {fill:white;fill-rule:nonzero}
   ]]>
  </style>
 </defs>
 <g id="Layer_x0020_1">
  <metadata id="CorelCorpID_0Corel-Layer"/>
  <path id="tiktok.svg" class="fil0" d="M4512.25 1652.02c426.3,-6.51 849.48,-3.13 1272.4,-6.51 14.06,528.91 228.65,1004.95 570.05,1357.55l-0.52 -0.52c367.45,330.99 845.57,545.57 1372.66,582.03l7.29 0.52 0 1311.46c-497.92,-12.5 -966.15,-127.34 -1388.28,-324.74l21.35 8.85c-204.17,-98.18 -376.82,-198.96 -540.89,-311.46l13.54 8.85c-3.13,950.26 3.13,1900.52 -6.51,2847.4 -26.82,482.55 -187.24,922.66 -444.53,1290.1l5.21 -8.07c-430.21,616.15 -1127.08,1020.57 -1919.53,1044.53l-3.65 0c-32.03,1.56 -69.79,2.34 -107.81,2.34 -450.52,0 -871.61,-125.52 -1230.47,-343.49l10.42 5.99c-653.13,-392.97 -1103.65,-1065.37 -1186.98,-1847.4l-1.04 -10.68c-6.51,-162.76 -9.63,-325.52 -3.13,-484.9 127.6,-1244.53 1170.31,-2207.29 2437.76,-2207.29 142.45,0 282.03,12.24 417.71,35.42l-14.58 -2.08c6.51,481.51 -13.02,963.28 -13.02,1444.79 -110.16,-39.84 -237.24,-63.02 -369.79,-63.02 -486.46,0 -900.26,310.94 -1053.39,745.05l-2.34 7.81c-34.63,111.2 -54.69,239.06 -54.69,371.35 0,53.65 3.39,106.77 9.63,158.85l-0.52 -6.25c86.46,532.81 543.23,934.9 1094.01,934.9 15.89,0 31.51,-0.26 47.13,-1.04l-2.34 0c380.99,-11.46 711.72,-216.41 898.7,-519.27l2.6 -4.69c69.53,-96.87 117.19,-214.06 133.07,-341.41l0.26 -3.65c32.55,-582.55 19.53,-1161.72 22.66,-1744.27 3.13,-1311.46 -3.13,-2619.79 6.51,-3927.87l1.04 0.8z"/>
 </g>
</svg>
