<?xml version="1.0" encoding="UTF-8"?>
<!DOCTYPE svg PUBLIC "-//W3C//DTD SVG 1.1//EN" "http://www.w3.org/Graphics/SVG/1.1/DTD/svg11.dtd">
<!-- Creator: CorelDRAW 2021 (64-Bit) -->
<svg xmlns="http://www.w3.org/2000/svg" xml:space="preserve" width="8.5in" height="11in" version="1.1" style="shape-rendering:geometricPrecision; text-rendering:geometricPrecision; image-rendering:optimizeQuality; fill-rule:evenodd; clip-rule:evenodd"
viewBox="0 0 8500 11000"
 xmlns:xlink="http://www.w3.org/1999/xlink"
 xmlns:xodm="http://www.corel.com/coreldraw/odm/2003">
 <defs>
  <style type="text/css">
   <![CDATA[
    .fil0 {fill:white;fill-rule:nonzero}
   ]]>
  </style>
 </defs>
 <g id="Layer_x0020_1">
  <metadata id="CorelCorpID_0Corel-Layer"/>
  <path id="whatsapp-brands-solid.svg" class="fil0" d="M6955.34 2760.18c-722.46,-724.19 -1684.59,-1122.48 -2707.06,-1122.48 -2110.47,0 -3827.82,1717.35 -3827.82,3827.82 0,674.18 175.87,1332.84 510.37,1913.91l-543.13 1982.88 2029.43 -532.79c558.65,305.19 1188,465.55 1829.42,465.55l1.72 0c2108.75,0 3864.03,-1717.35 3864.03,-3827.82 0,-1022.48 -434.51,-1982.88 -1156.97,-2707.06l0 0zm-2707.06 5890.01c-572.44,0 -1132.83,-153.46 -1620.78,-443.13l-115.53 -68.97 -1203.52 315.54 320.71 -1174.21 -75.86 -120.7c-318.98,-506.93 -486.24,-1091.44 -486.24,-1693.2 0,-1753.56 1427.67,-3181.23 3182.95,-3181.23 850.05,0 1648.38,331.06 2248.41,932.82 600.04,601.76 969.03,1400.09 967.3,2250.14 0,1755.28 -1463.89,3182.95 -3217.44,3182.95l-0 -0zm1744.94 -2382.9c-94.83,-48.28 -565.55,-279.33 -653.49,-310.37 -87.94,-32.76 -151.74,-48.28 -215.53,48.28 -63.8,96.56 -246.57,310.37 -303.47,375.88 -55.17,63.8 -112.07,72.42 -206.91,24.14 -562.11,-281.06 -931.09,-501.76 -1301.8,-1138 -98.28,-168.97 98.28,-156.91 281.05,-522.44 31.04,-63.8 15.52,-118.97 -8.62,-167.25 -24.14,-48.28 -215.53,-519 -294.85,-710.39 -77.59,-186.22 -156.91,-160.35 -215.53,-163.8 -55.17,-3.45 -118.97,-3.45 -182.77,-3.45 -63.8,0 -167.25,24.14 -255.19,118.97 -87.94,96.56 -334.5,327.61 -334.5,798.33 0,470.72 343.13,925.92 389.68,989.72 48.28,63.8 674.18,1029.37 1634.58,1444.92 606.93,262.09 844.88,284.5 1148.35,239.67 184.49,-27.59 565.55,-231.05 644.87,-455.2 79.31,-224.15 79.31,-415.54 55.17,-455.2 -22.41,-43.11 -86.21,-67.24 -181.05,-113.8l0 0z"/>
 </g>
</svg>
